<svg id="visual" viewBox="0 0 960 540" width="960" height="540" xmlns="http://www.w3.org/2000/svg" xmlns:xlink="http://www.w3.org/1999/xlink" version="1.1"><path d="M0 211L22.8 208.2C45.7 205.3 91.3 199.7 137 196.5C182.7 193.3 228.3 192.7 274 191.2C319.7 189.7 365.3 187.3 411.2 189.3C457 191.3 503 197.7 548.8 197.5C594.7 197.3 640.3 190.7 686 187.5C731.7 184.3 777.3 184.7 823 181.7C868.7 178.7 914.3 172.3 937.2 169.2L960 166L960 0L937.2 0C914.3 0 868.7 0 823 0C777.3 0 731.7 0 686 0C640.3 0 594.7 0 548.8 0C503 0 457 0 411.2 0C365.3 0 319.7 0 274 0C228.3 0 182.7 0 137 0C91.3 0 45.7 0 22.8 0L0 0Z" fill="#5390d9"></path><path d="M0 123L22.8 130.8C45.7 138.7 91.3 154.3 137 154C182.7 153.7 228.3 137.3 274 137C319.7 136.7 365.3 152.3 411.2 161.2C457 170 503 172 548.8 170.5C594.7 169 640.3 164 686 158.7C731.7 153.3 777.3 147.7 823 144.8C868.7 142 914.3 142 937.2 142L960 142L960 0L937.2 0C914.3 0 868.7 0 823 0C777.3 0 731.7 0 686 0C640.3 0 594.7 0 548.8 0C503 0 457 0 411.2 0C365.3 0 319.7 0 274 0C228.3 0 182.7 0 137 0C91.3 0 45.7 0 22.8 0L0 0Z" fill="#4f85d9"></path><path d="M0 93L22.8 93.2C45.7 93.3 91.3 93.7 137 93.7C182.7 93.7 228.3 93.3 274 96C319.7 98.7 365.3 104.3 411.2 105.5C457 106.7 503 103.3 548.8 103.7C594.7 104 640.3 108 686 109C731.7 110 777.3 108 823 106.3C868.7 104.7 914.3 103.3 937.2 102.7L960 102L960 0L937.2 0C914.3 0 868.7 0 823 0C777.3 0 731.7 0 686 0C640.3 0 594.7 0 548.8 0C503 0 457 0 411.2 0C365.3 0 319.7 0 274 0C228.3 0 182.7 0 137 0C91.3 0 45.7 0 22.8 0L0 0Z" fill="#507ad7"></path><path d="M0 71L22.8 71.3C45.7 71.7 91.3 72.3 137 71.3C182.7 70.3 228.3 67.7 274 72.2C319.7 76.7 365.3 88.3 411.2 89.8C457 91.3 503 82.7 548.8 80.7C594.7 78.7 640.3 83.3 686 81.8C731.7 80.3 777.3 72.7 823 68.3C868.7 64 914.3 63 937.2 62.5L960 62L960 0L937.2 0C914.3 0 868.7 0 823 0C777.3 0 731.7 0 686 0C640.3 0 594.7 0 548.8 0C503 0 457 0 411.2 0C365.3 0 319.7 0 274 0C228.3 0 182.7 0 137 0C91.3 0 45.7 0 22.8 0L0 0Z" fill="#556ed3"></path><path d="M0 27L22.8 27.8C45.7 28.7 91.3 30.3 137 32C182.7 33.7 228.3 35.3 274 35.8C319.7 36.3 365.3 35.7 411.2 35.2C457 34.7 503 34.3 548.8 36.5C594.7 38.7 640.3 43.3 686 42.7C731.7 42 777.3 36 823 32.5C868.7 29 914.3 28 937.2 27.5L960 27L960 0L937.2 0C914.3 0 868.7 0 823 0C777.3 0 731.7 0 686 0C640.3 0 594.7 0 548.8 0C503 0 457 0 411.2 0C365.3 0 319.7 0 274 0C228.3 0 182.7 0 137 0C91.3 0 45.7 0 22.8 0L0 0Z" fill="#5e60ce"></path></svg>